<?xml version="1.0" standalone="no"?>
<!DOCTYPE svg PUBLIC "-//W3C//DTD SVG 20010904//EN"
 "http://www.w3.org/TR/2001/REC-SVG-20010904/DTD/svg10.dtd">
<svg version="1.0" xmlns="http://www.w3.org/2000/svg"
 width="512.000000pt" height="512.000000pt" viewBox="0 0 512.000000 512.000000"
 preserveAspectRatio="xMidYMid meet">

<g transform="translate(0.000000,512.000000) scale(0.100000,-0.100000)"
fill="#000000" stroke="none">
<path d="M2164 4436 c-18 -13 -19 -32 -24 -298 l-5 -283 -921 -5 c-760 -4
-924 -7 -937 -19 -16 -12 -17 -134 -17 -1571 0 -1496 1 -1558 18 -1573 17 -16
190 -17 2284 -17 2181 0 2266 1 2281 18 16 17 17 141 17 1574 0 1435 -1 1557
-17 1569 -13 12 -177 15 -937 19 l-921 5 -5 283 c-5 266 -6 285 -24 298 -29
21 -763 21 -792 0z m676 -561 l0 -435 -280 0 -280 0 0 435 0 435 280 0 280 0
0 -435z m-702 -360 c2 -179 3 -191 23 -207 19 -16 54 -18 399 -18 345 0 380 2
399 18 20 16 21 28 23 207 l3 190 868 3 867 2 0 -1450 0 -1450 -2160 0 -2160
0 0 1450 0 1450 868 -2 867 -3 3 -190z"/>
<path d="M710 3020 l0 -70 1855 0 1855 0 0 70 0 70 -1855 0 -1855 0 0 -70z"/>
<path d="M2649 2761 c-24 -19 -24 -20 -24 -235 0 -282 -19 -260 228 -264 202
-4 239 0 268 29 18 18 19 34 19 228 0 196 -1 210 -21 235 l-20 26 -214 0
c-195 0 -215 -2 -236 -19z m341 -236 l0 -115 -110 0 -110 0 0 115 0 115 110 0
110 0 0 -115z"/>
<path d="M2820 2525 l0 -65 65 0 65 0 0 65 0 65 -65 0 -65 0 0 -65z"/>
<path d="M3829 2761 c-24 -19 -24 -22 -27 -229 l-3 -210 25 -28 24 -29 184 -3
c203 -4 240 0 269 29 18 18 19 34 19 228 0 196 -1 210 -21 235 l-20 26 -214 0
c-195 0 -215 -2 -236 -19z m341 -236 l0 -115 -110 0 -110 0 0 115 0 115 110 0
110 0 0 -115z"/>
<path d="M4000 2525 l0 -65 65 0 65 0 0 65 0 65 -65 0 -65 0 0 -65z"/>
<path d="M3275 2735 c-22 -21 -25 -33 -25 -98 0 -64 3 -76 23 -95 44 -42 117
-15 117 43 0 22 4 25 35 25 l35 0 0 -138 c0 -132 1 -140 23 -160 27 -26 64
-28 95 -6 21 15 22 20 22 212 0 108 -4 202 -8 208 -17 26 -56 34 -172 34 -115
0 -122 -1 -145 -25z"/>
<path d="M710 2645 l0 -75 815 0 815 0 0 75 0 75 -815 0 -815 0 0 -75z"/>
<path d="M710 2270 l0 -70 110 0 110 0 0 70 0 70 -110 0 -110 0 0 -70z"/>
<path d="M1100 2270 l0 -70 170 0 170 0 0 70 0 70 -170 0 -170 0 0 -70z"/>
<path d="M1610 2270 l0 -70 170 0 170 0 0 70 0 70 -170 0 -170 0 0 -70z"/>
<path d="M2120 2270 l0 -70 110 0 110 0 0 70 0 70 -110 0 -110 0 0 -70z"/>
<path d="M3250 2248 c-18 -20 -20 -35 -20 -188 0 -161 1 -167 23 -188 27 -26
64 -28 95 -6 21 15 22 21 22 194 0 173 -1 179 -22 194 -32 23 -74 20 -98 -6z"/>
<path d="M4194 2139 c-13 -15 -20 -40 -22 -90 l-4 -69 -200 0 c-237 0 -258 -6
-258 -76 0 -19 8 -38 21 -50 19 -17 42 -19 262 -22 133 -2 252 0 265 3 12 3
31 14 42 25 18 18 20 34 20 140 0 107 -2 122 -20 140 -27 27 -81 26 -106 -1z"/>
<path d="M2664 2060 c-29 -11 -44 -60 -44 -140 0 -83 14 -124 46 -139 16 -7
94 -11 215 -11 188 0 190 0 214 25 34 33 33 77 -1 104 -24 19 -40 21 -175 21
l-149 0 0 50 c0 41 -5 56 -25 75 -25 26 -45 30 -81 15z"/>
<path d="M710 1900 l0 -70 815 0 815 0 0 70 0 70 -815 0 -815 0 0 -70z"/>
<path d="M3499 1881 c-24 -19 -24 -23 -24 -191 l0 -172 28 -24 c27 -23 33 -24
203 -24 135 0 182 3 204 15 49 25 50 98 0 125 -10 5 -80 10 -154 10 l-136 0 0
114 c0 99 -3 117 -21 140 -25 31 -66 34 -100 7z"/>
<path d="M3273 1660 c-40 -16 -43 -39 -43 -290 l0 -241 25 -24 c23 -24 29 -25
165 -25 127 0 142 2 160 20 27 27 26 81 -1 106 -16 14 -40 19 -115 22 l-94 4
0 198 0 199 -26 20 c-29 23 -38 24 -71 11z"/>
<path d="M710 1525 l0 -75 815 0 815 0 0 75 0 75 -815 0 -815 0 0 -75z"/>
<path d="M2663 1588 c-36 -17 -43 -60 -43 -255 0 -191 8 -232 45 -247 9 -3
109 -6 221 -6 275 0 254 -21 254 258 0 281 23 256 -247 259 -134 1 -216 -2
-230 -9z m327 -248 l0 -110 -110 0 -110 0 0 110 0 110 110 0 110 0 0 -110z"/>
<path d="M2820 1335 l0 -65 65 0 65 0 0 65 0 65 -65 0 -65 0 0 -65z"/>
<path d="M4200 1550 c-29 -29 -32 -50 -28 -249 3 -178 4 -183 27 -202 32 -26
67 -24 96 6 25 24 25 25 25 220 0 195 0 196 -25 220 -29 30 -68 32 -95 5z"/>
<path d="M710 1155 l0 -75 815 0 815 0 0 75 0 75 -815 0 -815 0 0 -75z"/>
<path d="M3765 1223 c-55 -14 -75 -83 -35 -123 18 -18 33 -20 140 -20 115 0
122 1 145 25 42 41 29 95 -26 114 -31 11 -185 13 -224 4z"/>
</g>
</svg>
