<?xml version="1.0" standalone="no"?>
<!DOCTYPE svg PUBLIC "-//W3C//DTD SVG 20010904//EN"
 "http://www.w3.org/TR/2001/REC-SVG-20010904/DTD/svg10.dtd">
<svg version="1.0" xmlns="http://www.w3.org/2000/svg"
 width="512.000000pt" height="512.000000pt" viewBox="0 0 512.000000 512.000000"
 preserveAspectRatio="xMidYMid meet">

<g transform="translate(0.000000,512.000000) scale(0.100000,-0.100000)"
fill="#000000" stroke="none">
<path d="M1670 4839 c-545 -32 -842 -134 -1061 -365 -211 -223 -300 -510 -329
-1059 -13 -247 -13 -1465 0 -1710 26 -474 91 -734 240 -950 140 -201 347 -334
632 -404 287 -71 559 -85 1563 -78 746 5 857 9 1081 42 307 46 544 154 705
322 220 229 309 510 339 1068 13 246 13 1464 0 1710 -30 553 -122 843 -339
1068 -124 129 -305 229 -507 282 -100 26 -238 48 -409 66 -135 14 -1703 21
-1915 8z m1775 -319 c511 -32 745 -122 897 -343 102 -150 153 -358 178 -732
13 -195 13 -1575 0 -1770 -25 -373 -72 -567 -175 -725 -148 -226 -386 -318
-905 -350 -217 -13 -1548 -13 -1760 0 -377 24 -584 74 -737 178 -199 135 -294
355 -335 772 -19 192 -19 1828 0 2020 35 361 112 573 255 707 166 155 370 213
867 247 124 8 1576 5 1715 -4z"/>
<path d="M1928 3989 c-264 -22 -425 -113 -512 -290 -55 -111 -66 -181 -78
-491 l-12 -278 -149 0 c-167 0 -201 -9 -240 -64 -17 -24 -22 -45 -22 -93 0
-70 19 -104 76 -138 34 -20 52 -20 1569 -20 1530 0 1535 0 1570 21 58 34 82
79 78 145 -5 65 -32 109 -82 133 -27 12 -66 16 -183 16 l-149 0 -12 278 c-7
170 -17 304 -26 347 -36 161 -137 299 -266 361 -86 42 -171 62 -315 74 -140
11 -1105 11 -1247 -1z m1332 -328 c170 -38 196 -100 207 -493 l6 -238 -913 0
-913 0 6 238 c11 396 39 460 212 491 101 18 111 19 735 16 431 -2 621 -6 660
-14z"/>
<path d="M1657 1856 c-76 -28 -114 -89 -105 -171 6 -51 31 -87 79 -114 36 -21
45 -21 930 -21 824 1 896 2 926 18 52 28 76 68 81 131 4 66 -20 111 -78 145
-35 21 -47 21 -915 23 -728 2 -887 0 -918 -11z"/>
</g>
</svg>
